<mxfile host="app.diagrams.net" agent="Mozilla/5.0 (Windows NT 10.0; Win64; x64; rv:132.0) Gecko/20100101 Firefox/132.0" version="24.8.4">
  <diagram id="C5RBs43oDa-KdzZeNtuy" name="Page-1">
    <mxGraphModel dx="935" dy="1393" grid="1" gridSize="10" guides="1" tooltips="1" connect="1" arrows="1" fold="1" page="1" pageScale="1" pageWidth="827" pageHeight="1169" math="0" shadow="0">
      <root>
        <mxCell id="WIyWlLk6GJQsqaUBKTNV-0" />
        <mxCell id="WIyWlLk6GJQsqaUBKTNV-1" parent="WIyWlLk6GJQsqaUBKTNV-0" />
        <mxCell id="2h1neoMziDeq7KVNmEM5-8" value="Evento" style="swimlane;fontStyle=1;align=center;verticalAlign=top;childLayout=stackLayout;horizontal=1;startSize=26;horizontalStack=0;resizeParent=1;resizeParentMax=0;resizeLast=0;collapsible=1;marginBottom=0;whiteSpace=wrap;html=1;" vertex="1" parent="WIyWlLk6GJQsqaUBKTNV-1">
          <mxGeometry x="350" y="720" width="200" height="180" as="geometry" />
        </mxCell>
        <mxCell id="2h1neoMziDeq7KVNmEM5-9" value="&lt;div&gt;+ idEvento:string&lt;br&gt;&lt;/div&gt;&lt;div&gt;+ nombreEvento : string&lt;br&gt;&lt;/div&gt;&lt;div&gt;+ lugar : string&lt;br&gt;&lt;/div&gt;&lt;div&gt;+ fecha : date&lt;br&gt;&lt;/div&gt;&lt;div&gt;+ hora : time&lt;br&gt;&lt;/div&gt;&lt;div&gt;+ tipoEvento : string&lt;br&gt;&lt;/div&gt;" style="text;strokeColor=none;fillColor=none;align=left;verticalAlign=top;spacingLeft=4;spacingRight=4;overflow=hidden;rotatable=0;points=[[0,0.5],[1,0.5]];portConstraint=eastwest;whiteSpace=wrap;html=1;" vertex="1" parent="2h1neoMziDeq7KVNmEM5-8">
          <mxGeometry y="26" width="200" height="104" as="geometry" />
        </mxCell>
        <mxCell id="2h1neoMziDeq7KVNmEM5-10" value="" style="line;strokeWidth=1;fillColor=none;align=left;verticalAlign=middle;spacingTop=-1;spacingLeft=3;spacingRight=3;rotatable=0;labelPosition=right;points=[];portConstraint=eastwest;strokeColor=inherit;" vertex="1" parent="2h1neoMziDeq7KVNmEM5-8">
          <mxGeometry y="130" width="200" height="8" as="geometry" />
        </mxCell>
        <mxCell id="2h1neoMziDeq7KVNmEM5-11" value="&lt;div&gt;+ obtenerListaAsistencia()&lt;/div&gt;&lt;div&gt;+ agregarParticipante(Usuario: user)&lt;br&gt;&lt;/div&gt;" style="text;strokeColor=none;fillColor=none;align=left;verticalAlign=top;spacingLeft=4;spacingRight=4;overflow=hidden;rotatable=0;points=[[0,0.5],[1,0.5]];portConstraint=eastwest;whiteSpace=wrap;html=1;" vertex="1" parent="2h1neoMziDeq7KVNmEM5-8">
          <mxGeometry y="138" width="200" height="42" as="geometry" />
        </mxCell>
        <mxCell id="2h1neoMziDeq7KVNmEM5-12" value="Informe" style="swimlane;fontStyle=1;align=center;verticalAlign=top;childLayout=stackLayout;horizontal=1;startSize=26;horizontalStack=0;resizeParent=1;resizeParentMax=0;resizeLast=0;collapsible=1;marginBottom=0;whiteSpace=wrap;html=1;" vertex="1" parent="WIyWlLk6GJQsqaUBKTNV-1">
          <mxGeometry x="750" y="460" width="200" height="120" as="geometry" />
        </mxCell>
        <mxCell id="2h1neoMziDeq7KVNmEM5-13" value="&lt;div&gt;+ evento : Evento&lt;/div&gt;&lt;div&gt;+ listaAsistencia : List&amp;lt;Registro&amp;gt;&lt;br&gt;&lt;/div&gt;&lt;div&gt;&lt;br&gt;&lt;/div&gt;" style="text;strokeColor=none;fillColor=none;align=left;verticalAlign=top;spacingLeft=4;spacingRight=4;overflow=hidden;rotatable=0;points=[[0,0.5],[1,0.5]];portConstraint=eastwest;whiteSpace=wrap;html=1;" vertex="1" parent="2h1neoMziDeq7KVNmEM5-12">
          <mxGeometry y="26" width="200" height="54" as="geometry" />
        </mxCell>
        <mxCell id="2h1neoMziDeq7KVNmEM5-14" value="" style="line;strokeWidth=1;fillColor=none;align=left;verticalAlign=middle;spacingTop=-1;spacingLeft=3;spacingRight=3;rotatable=0;labelPosition=right;points=[];portConstraint=eastwest;strokeColor=inherit;" vertex="1" parent="2h1neoMziDeq7KVNmEM5-12">
          <mxGeometry y="80" width="200" height="8" as="geometry" />
        </mxCell>
        <mxCell id="2h1neoMziDeq7KVNmEM5-15" value="+generarInforme() :" style="text;strokeColor=none;fillColor=none;align=left;verticalAlign=top;spacingLeft=4;spacingRight=4;overflow=hidden;rotatable=0;points=[[0,0.5],[1,0.5]];portConstraint=eastwest;whiteSpace=wrap;html=1;" vertex="1" parent="2h1neoMziDeq7KVNmEM5-12">
          <mxGeometry y="88" width="200" height="32" as="geometry" />
        </mxCell>
        <mxCell id="2h1neoMziDeq7KVNmEM5-20" value="Usuario" style="swimlane;fontStyle=1;align=center;verticalAlign=top;childLayout=stackLayout;horizontal=1;startSize=30;horizontalStack=0;resizeParent=1;resizeParentMax=0;resizeLast=0;collapsible=1;marginBottom=0;whiteSpace=wrap;html=1;" vertex="1" parent="WIyWlLk6GJQsqaUBKTNV-1">
          <mxGeometry x="170" y="60" width="200" height="230" as="geometry" />
        </mxCell>
        <mxCell id="2h1neoMziDeq7KVNmEM5-21" value="&lt;div&gt;+ numeroCuenta : string&lt;br&gt;&lt;/div&gt;&lt;div&gt;+ nombre : string&lt;br&gt;&lt;/div&gt;&lt;div&gt;+ edad : int&lt;br&gt;&lt;/div&gt;&lt;div&gt;+ licenciatura : string&lt;br&gt;&lt;/div&gt;&lt;div&gt;+ grupo : string&lt;br&gt;&lt;/div&gt;&lt;div&gt;+ estado : boolean&lt;br&gt;&lt;/div&gt;&lt;div&gt;+ celular : int&lt;/div&gt;&lt;div&gt;+ constrasena : string&lt;/div&gt;&lt;div&gt;+ rol : string&lt;br&gt;&lt;/div&gt;" style="text;strokeColor=none;fillColor=none;align=left;verticalAlign=top;spacingLeft=4;spacingRight=4;overflow=hidden;rotatable=0;points=[[0,0.5],[1,0.5]];portConstraint=eastwest;whiteSpace=wrap;html=1;" vertex="1" parent="2h1neoMziDeq7KVNmEM5-20">
          <mxGeometry y="30" width="200" height="140" as="geometry" />
        </mxCell>
        <mxCell id="2h1neoMziDeq7KVNmEM5-22" value="" style="line;strokeWidth=1;fillColor=none;align=left;verticalAlign=middle;spacingTop=-1;spacingLeft=3;spacingRight=3;rotatable=0;labelPosition=right;points=[];portConstraint=eastwest;strokeColor=inherit;" vertex="1" parent="2h1neoMziDeq7KVNmEM5-20">
          <mxGeometry y="170" width="200" height="8" as="geometry" />
        </mxCell>
        <mxCell id="2h1neoMziDeq7KVNmEM5-23" value="&lt;div&gt;+ ingresaDatos(Evento: event)&lt;/div&gt;&lt;div&gt;+ registroEvento(Evento: event)&lt;br&gt;&lt;/div&gt;" style="text;strokeColor=none;fillColor=none;align=left;verticalAlign=top;spacingLeft=4;spacingRight=4;overflow=hidden;rotatable=0;points=[[0,0.5],[1,0.5]];portConstraint=eastwest;whiteSpace=wrap;html=1;" vertex="1" parent="2h1neoMziDeq7KVNmEM5-20">
          <mxGeometry y="178" width="200" height="52" as="geometry" />
        </mxCell>
        <mxCell id="2h1neoMziDeq7KVNmEM5-24" value="Administrador" style="swimlane;fontStyle=1;align=center;verticalAlign=top;childLayout=stackLayout;horizontal=1;startSize=26;horizontalStack=0;resizeParent=1;resizeParentMax=0;resizeLast=0;collapsible=1;marginBottom=0;whiteSpace=wrap;html=1;" vertex="1" parent="WIyWlLk6GJQsqaUBKTNV-1">
          <mxGeometry x="10" y="500" width="200" height="60" as="geometry" />
        </mxCell>
        <mxCell id="2h1neoMziDeq7KVNmEM5-26" value="" style="line;strokeWidth=1;fillColor=none;align=left;verticalAlign=middle;spacingTop=-1;spacingLeft=3;spacingRight=3;rotatable=0;labelPosition=right;points=[];portConstraint=eastwest;strokeColor=inherit;" vertex="1" parent="2h1neoMziDeq7KVNmEM5-24">
          <mxGeometry y="26" width="200" height="8" as="geometry" />
        </mxCell>
        <mxCell id="2h1neoMziDeq7KVNmEM5-27" value="+ generarInforme(Evento : event)" style="text;strokeColor=none;fillColor=none;align=left;verticalAlign=top;spacingLeft=4;spacingRight=4;overflow=hidden;rotatable=0;points=[[0,0.5],[1,0.5]];portConstraint=eastwest;whiteSpace=wrap;html=1;" vertex="1" parent="2h1neoMziDeq7KVNmEM5-24">
          <mxGeometry y="34" width="200" height="26" as="geometry" />
        </mxCell>
        <mxCell id="2h1neoMziDeq7KVNmEM5-28" value="Registro" style="swimlane;fontStyle=1;align=center;verticalAlign=top;childLayout=stackLayout;horizontal=1;startSize=26;horizontalStack=0;resizeParent=1;resizeParentMax=0;resizeLast=0;collapsible=1;marginBottom=0;whiteSpace=wrap;html=1;" vertex="1" parent="WIyWlLk6GJQsqaUBKTNV-1">
          <mxGeometry x="320" y="460" width="230" height="114" as="geometry" />
        </mxCell>
        <mxCell id="2h1neoMziDeq7KVNmEM5-29" value="&lt;div&gt;+ usuario : Usuario&lt;/div&gt;&lt;div&gt;+ evento : Evento&lt;/div&gt;&lt;div&gt;+ estadoAsistencia : Boolean = False&lt;br&gt;&lt;/div&gt;&amp;nbsp;" style="text;strokeColor=none;fillColor=none;align=left;verticalAlign=top;spacingLeft=4;spacingRight=4;overflow=hidden;rotatable=0;points=[[0,0.5],[1,0.5]];portConstraint=eastwest;whiteSpace=wrap;html=1;" vertex="1" parent="2h1neoMziDeq7KVNmEM5-28">
          <mxGeometry y="26" width="230" height="54" as="geometry" />
        </mxCell>
        <mxCell id="2h1neoMziDeq7KVNmEM5-30" value="" style="line;strokeWidth=1;fillColor=none;align=left;verticalAlign=middle;spacingTop=-1;spacingLeft=3;spacingRight=3;rotatable=0;labelPosition=right;points=[];portConstraint=eastwest;strokeColor=inherit;" vertex="1" parent="2h1neoMziDeq7KVNmEM5-28">
          <mxGeometry y="80" width="230" height="8" as="geometry" />
        </mxCell>
        <mxCell id="2h1neoMziDeq7KVNmEM5-31" value="+ confirmarAsistencia () : estado" style="text;strokeColor=none;fillColor=none;align=left;verticalAlign=top;spacingLeft=4;spacingRight=4;overflow=hidden;rotatable=0;points=[[0,0.5],[1,0.5]];portConstraint=eastwest;whiteSpace=wrap;html=1;" vertex="1" parent="2h1neoMziDeq7KVNmEM5-28">
          <mxGeometry y="88" width="230" height="26" as="geometry" />
        </mxCell>
        <mxCell id="2h1neoMziDeq7KVNmEM5-57" value="" style="endArrow=block;endSize=16;endFill=0;html=1;rounded=0;entryX=0;entryY=0.5;entryDx=0;entryDy=0;" edge="1" parent="WIyWlLk6GJQsqaUBKTNV-1" source="2h1neoMziDeq7KVNmEM5-24" target="2h1neoMziDeq7KVNmEM5-21">
          <mxGeometry width="160" relative="1" as="geometry">
            <mxPoint x="180" y="620" as="sourcePoint" />
            <mxPoint x="360" y="440" as="targetPoint" />
            <Array as="points">
              <mxPoint x="110" y="160" />
            </Array>
          </mxGeometry>
        </mxCell>
        <mxCell id="2h1neoMziDeq7KVNmEM5-77" value="1" style="text;html=1;align=center;verticalAlign=middle;whiteSpace=wrap;rounded=0;" vertex="1" parent="WIyWlLk6GJQsqaUBKTNV-1">
          <mxGeometry x="440" y="690" width="60" height="30" as="geometry" />
        </mxCell>
        <mxCell id="2h1neoMziDeq7KVNmEM5-78" value="*" style="text;html=1;align=center;verticalAlign=middle;whiteSpace=wrap;rounded=0;" vertex="1" parent="WIyWlLk6GJQsqaUBKTNV-1">
          <mxGeometry x="440" y="585" width="60" height="30" as="geometry" />
        </mxCell>
        <mxCell id="2h1neoMziDeq7KVNmEM5-81" value="1" style="text;html=1;align=center;verticalAlign=middle;whiteSpace=wrap;rounded=0;" vertex="1" parent="WIyWlLk6GJQsqaUBKTNV-1">
          <mxGeometry x="380" y="130" width="60" height="30" as="geometry" />
        </mxCell>
        <mxCell id="2h1neoMziDeq7KVNmEM5-82" value="*" style="text;html=1;align=center;verticalAlign=middle;whiteSpace=wrap;rounded=0;" vertex="1" parent="WIyWlLk6GJQsqaUBKTNV-1">
          <mxGeometry x="440" y="420" width="60" height="30" as="geometry" />
        </mxCell>
        <mxCell id="2h1neoMziDeq7KVNmEM5-86" value="inscrito a" style="endArrow=block;startArrow=block;endFill=1;startFill=1;html=1;rounded=0;exitX=0.511;exitY=1.093;exitDx=0;exitDy=0;exitPerimeter=0;entryX=0.43;entryY=-0.012;entryDx=0;entryDy=0;entryPerimeter=0;" edge="1" parent="WIyWlLk6GJQsqaUBKTNV-1" source="2h1neoMziDeq7KVNmEM5-31" target="2h1neoMziDeq7KVNmEM5-8">
          <mxGeometry width="160" relative="1" as="geometry">
            <mxPoint x="470" y="670" as="sourcePoint" />
            <mxPoint x="630" y="670" as="targetPoint" />
          </mxGeometry>
        </mxCell>
        <mxCell id="2h1neoMziDeq7KVNmEM5-87" value="registra" style="endArrow=block;startArrow=block;endFill=1;startFill=1;html=1;rounded=0;exitX=0.987;exitY=0.577;exitDx=0;exitDy=0;exitPerimeter=0;entryX=0;entryY=1;entryDx=0;entryDy=0;" edge="1" parent="WIyWlLk6GJQsqaUBKTNV-1" source="2h1neoMziDeq7KVNmEM5-21" target="2h1neoMziDeq7KVNmEM5-82">
          <mxGeometry width="160" relative="1" as="geometry">
            <mxPoint x="400" y="240" as="sourcePoint" />
            <mxPoint x="560" y="240" as="targetPoint" />
            <Array as="points">
              <mxPoint x="440" y="171" />
            </Array>
          </mxGeometry>
        </mxCell>
        <mxCell id="2h1neoMziDeq7KVNmEM5-91" value="1" style="endArrow=open;html=1;endSize=12;startArrow=diamondThin;startSize=14;startFill=1;edgeStyle=orthogonalEdgeStyle;align=left;verticalAlign=bottom;rounded=0;entryX=1.003;entryY=0.745;entryDx=0;entryDy=0;entryPerimeter=0;" edge="1" parent="WIyWlLk6GJQsqaUBKTNV-1" target="2h1neoMziDeq7KVNmEM5-29">
          <mxGeometry x="-0.7893" y="-6" relative="1" as="geometry">
            <mxPoint x="740" y="526" as="sourcePoint" />
            <mxPoint x="830" y="440" as="targetPoint" />
            <mxPoint as="offset" />
          </mxGeometry>
        </mxCell>
        <mxCell id="2h1neoMziDeq7KVNmEM5-92" value="*" style="text;html=1;align=center;verticalAlign=middle;whiteSpace=wrap;rounded=0;" vertex="1" parent="WIyWlLk6GJQsqaUBKTNV-1">
          <mxGeometry x="540" y="500" width="60" height="30" as="geometry" />
        </mxCell>
      </root>
    </mxGraphModel>
  </diagram>
</mxfile>
